<svg width="64" height="64" viewBox="0 0 64 64" fill="none" xmlns="http://www.w3.org/2000/svg">
  <rect x="6" y="6" width="52" height="52" rx="14" fill="#111111"/>
  <path d="M22.5 23.5C20.8431 23.5 19.5 24.8431 19.5 26.5V33.5C19.5 35.1569 20.8431 36.5 22.5 36.5H26.5C27.3284 36.5 28 35.8284 28 35V28C28 25.5147 26.4853 23.5 24.5 23.5H22.5Z" fill="white"/>
  <path d="M37.5 23.5C35.8431 23.5 34.5 24.8431 34.5 26.5V33.5C34.5 35.1569 35.8431 36.5 37.5 36.5H41.5C42.3284 36.5 43 35.8284 43 35V28C43 25.5147 41.4853 23.5 39.5 23.5H37.5Z" fill="white"/>
  <path d="M33.5 39.5H30.5L26 45.5H38L33.5 39.5Z" fill="white"/>
</svg>
